<?xml version="1.0"?>
<svg xmlns="http://www.w3.org/2000/svg" width="1200" height="630" viewBox="0 0 100 35" fill="none">
<g clip-path="url(#clip0_4782_754)">
<path d="M46.671 4.77041C46.7089 5.03339 46.7468 5.29748 46.7825 5.54262C46.7449 5.6907 46.7449 5.84583 46.7825 5.99391C46.7446 6.08751 46.7067 6.18222 46.671 6.29477C46.4827 6.51763 46.2755 6.765 45.9557 6.82183C44.7132 6.9912 43.4519 7.15612 42.2105 7.311C40.0833 7.53386 37.9573 7.74446 35.8301 7.89489C33.5335 8.06427 31.2191 8.19575 28.9215 8.25258C25.9664 8.34618 23.0157 8.36401 20.0562 8.29047C18.0983 8.25258 16.1416 8.17904 14.1838 8.04532C13.9955 8.02638 13.9387 8.10215 13.9387 8.26818C13.9387 8.53115 13.9197 8.79524 13.9197 9.05822C13.9258 9.11185 13.9206 9.16616 13.9046 9.2177C13.8885 9.26923 13.862 9.31688 13.8266 9.35763C13.7912 9.39837 13.7477 9.43132 13.6989 9.45439C13.6501 9.47747 13.5971 9.49016 13.5431 9.49168C13.0918 9.52956 12.7341 9.39808 12.6773 9.17187C12.6584 9.13399 12.6773 9.0961 12.6773 9.04039C12.6963 8.79524 12.6963 8.53227 12.7341 8.28713C12.772 8.04198 12.6963 7.96732 12.4522 7.95284C9.19626 7.74558 5.95812 7.42578 2.74005 7.0302C2.1751 6.95443 1.57338 6.95443 1.18004 6.40954C1.02961 5.93931 1.16109 5.45013 1.21792 4.97879C1.38729 3.69846 1.66921 3.49232 2.94953 3.64163C6.16761 4.03721 9.3868 4.35701 12.6049 4.58321C12.8679 4.60216 13.0005 4.54533 12.9815 4.26341C12.9815 4.00044 13.0005 3.73635 13.0194 3.49121C13.0383 3.22823 13.1698 3.09563 13.4529 3.11457C14.2618 3.13352 14.2997 3.1714 14.2429 3.98038C14.205 4.67681 14.205 4.69576 14.8825 4.7147C19.2684 4.90302 23.6342 4.99662 28.02 4.86513C30.6943 4.78936 33.3842 4.64227 36.0574 4.45061C39.144 4.22775 42.2116 3.88567 45.2615 3.47226C46.0704 3.36083 46.5229 3.75418 46.6543 4.69799C46.6332 4.71359 46.6142 4.75147 46.671 4.77041ZM8.08642 4.79159C7.975 4.77264 7.936 4.81053 7.91705 4.84841C7.70979 5.13033 7.50253 5.41336 7.27745 5.69528C7.20168 5.78888 7.23956 5.86465 7.27745 5.95825C7.42676 6.24017 7.55936 6.53991 7.68862 6.84077C7.76439 6.9912 7.83905 7.04803 7.95159 6.87866C8.13991 6.61568 8.30928 6.37054 8.51654 6.1254C8.56766 6.07403 8.59937 6.00652 8.60628 5.93439C8.61319 5.86225 8.59486 5.78996 8.55443 5.72982C8.404 5.46685 8.29145 5.18382 8.15885 4.92084C8.1232 4.84619 8.10425 4.79159 8.08642 4.79159ZM11.4371 5.05456C11.3803 5.05456 11.3435 5.11139 11.3056 5.14816C11.1173 5.43008 10.929 5.69416 10.7217 5.97608C10.6281 6.10757 10.6649 6.19894 10.7217 6.31037C10.8722 6.57334 11.0036 6.83743 11.1362 7.11934C11.212 7.28872 11.3056 7.3266 11.4182 7.15723C11.5385 6.96274 11.6699 6.77524 11.8115 6.59563C12.0344 6.35048 12.0745 6.10645 11.8683 5.82342C11.7506 5.62249 11.6438 5.41529 11.5485 5.20276C11.5307 5.12587 11.5118 5.05233 11.436 5.05233L11.4371 5.05456ZM3.51225 5.33536C3.44619 5.15281 3.36416 4.97644 3.26711 4.8083C3.15568 4.60104 3.17351 4.24335 2.9473 4.22441C2.75899 4.20547 2.66539 4.5587 2.47707 4.71359C2.14279 5.01444 2.04361 5.33425 2.32664 5.72982C2.41624 5.8676 2.48005 6.02051 2.51496 6.18111C2.59073 6.40397 2.68433 6.42625 2.81582 6.23794C3.00413 5.99279 3.19245 5.76771 3.38076 5.52256C3.4188 5.50796 3.45162 5.48235 3.47504 5.449C3.49846 5.41566 3.51142 5.3761 3.51225 5.33536ZM6.8997 5.74988V5.69305C6.74927 5.34873 6.59884 5.01444 6.42947 4.68016C6.3537 4.54867 6.27904 4.62333 6.22221 4.6991C6.0339 4.94424 5.84558 5.20722 5.65727 5.43342C5.60615 5.48479 5.57444 5.55229 5.56753 5.62443C5.56062 5.69656 5.57895 5.76886 5.61938 5.82899C5.75087 6.09197 5.88235 6.375 5.99601 6.65691C6.07178 6.86417 6.16538 6.84523 6.27793 6.6948C6.4473 6.48754 6.59773 6.26134 6.7671 6.03625C6.82288 5.9462 6.86741 5.84965 6.8997 5.74876V5.74988ZM4.37806 6.57446C4.45383 6.57446 4.48949 6.51763 4.52849 6.46303C4.7168 6.24017 4.88617 5.99279 5.07449 5.78554C5.13901 5.72642 5.17877 5.64508 5.1858 5.55786C5.19283 5.47064 5.1666 5.38399 5.11238 5.3153C4.98188 5.06658 4.87014 4.80846 4.77809 4.5431C4.70232 4.33584 4.62766 4.35478 4.49617 4.50521C4.30786 4.76819 4.11954 5.03227 3.91228 5.27742C3.87108 5.31478 3.84461 5.36565 3.83766 5.42084C3.83072 5.47602 3.84375 5.53187 3.8744 5.57828C4.00588 5.84125 4.11954 6.12428 4.25103 6.4062C4.28334 6.48308 4.28334 6.57446 4.37806 6.57446ZM10.3262 6.01731C10.1568 5.68302 9.99187 5.32088 9.79909 4.98213C9.74226 4.8707 9.66761 4.94424 9.61078 5.02002C9.46035 5.24287 9.30992 5.4713 9.14055 5.67856C8.95223 5.88582 8.93329 6.07414 9.10266 6.31817C9.22808 6.53462 9.33506 6.76125 9.42246 6.99566C9.49823 7.20292 9.59183 7.18397 9.70438 7.03354L10.2693 6.24017C10.2883 6.16328 10.3451 6.10645 10.3262 6.01731Z" fill="#FDFBFC"/>
<path d="M1.17776 6.38919C1.55439 6.93519 2.15611 6.93519 2.73777 7.00985C5.97479 7.40542 9.21293 7.72522 12.45 7.93248C12.6951 7.95142 12.7842 8.02608 12.7319 8.26677C12.694 8.51191 12.694 8.75594 12.675 9.02003V9.15151C12.7319 9.37437 13.0896 9.52814 13.5408 9.47132C13.786 9.45237 13.8985 9.283 13.9175 9.03786C13.9175 8.77488 13.9364 8.5108 13.9364 8.24782C13.9364 8.07845 13.9932 8.02496 14.1816 8.02496C16.1394 8.15645 18.0961 8.23222 20.0539 8.27011C23.009 8.34588 25.9596 8.32694 28.9192 8.23222C31.2158 8.15645 33.5302 8.04391 35.8278 7.87454C37.955 7.70516 40.0811 7.51685 42.2083 7.29065C43.4696 7.15916 44.7121 6.97085 45.9534 6.80147C46.2732 6.76359 46.4615 6.51956 46.6688 6.27441C46.7348 6.52681 46.7722 6.78585 46.7802 7.04662C46.7991 7.31989 46.7118 7.5899 46.5363 7.80025C46.3608 8.0106 46.1109 8.14501 45.8386 8.1754C44.8224 8.30688 43.8062 8.43837 42.7899 8.55203C39.8727 8.89077 36.9555 9.15411 34.0383 9.34206C31.0832 9.53037 28.147 9.64292 25.1919 9.66186C23.1973 9.6808 21.2016 9.66186 19.207 9.62397C17.569 9.58609 15.9321 9.53037 14.2941 9.40112C14.0311 9.38217 13.9364 9.45794 13.9598 9.7354C13.966 9.97449 13.9533 10.2137 13.9219 10.4508C13.903 10.6959 13.7715 10.8274 13.5074 10.8274C12.6984 10.8464 12.6416 10.7895 12.6606 9.98055C12.6795 9.30306 12.6795 9.322 11.9831 9.26517C9.76228 9.11474 7.54149 8.93088 5.31959 8.66234L2.02574 8.27122C1.32931 8.17762 0.952676 7.66839 1.04739 6.97196C1.13015 6.78863 1.17452 6.5903 1.17776 6.38919Z" fill="#FC446A"/>
<path d="M46.8004 6.0172C46.7628 5.86912 46.7628 5.714 46.8004 5.56592C46.894 5.6974 46.8383 5.86678 46.8383 5.99938C46.8383 6.0044 46.8363 6.00922 46.8328 6.01277C46.8292 6.01632 46.8244 6.01832 46.8194 6.01832C46.8194 6.03726 46.8004 6.01832 46.8004 6.01832V6.0172Z" fill="#FC446A"/>
<path d="M46.6711 4.77012C46.6143 4.73224 46.6143 4.69435 46.6521 4.65869C46.7457 4.69435 46.7457 4.73224 46.6711 4.77012Z" fill="#FC446A"/>
<path d="M8.08661 4.79139C8.10555 4.79139 8.1245 4.84822 8.16238 4.90282C8.29387 5.18474 8.40753 5.44883 8.55796 5.7118C8.59839 5.77193 8.61672 5.84423 8.60981 5.91637C8.6029 5.9885 8.57118 6.05601 8.52007 6.10737C8.33175 6.35252 8.14344 6.61549 7.95512 6.86063C7.84369 7.03001 7.76681 6.97206 7.69215 6.82275C7.56066 6.52189 7.41023 6.23886 7.27763 5.938C7.23975 5.8444 7.20186 5.76863 7.27763 5.67503C7.48489 5.39311 7.69215 5.11008 7.91724 4.82817C7.93507 4.80811 7.97295 4.77022 8.08661 4.79139Z" fill="#FC446A"/>
<path d="M11.4359 5.05225C11.5295 5.05225 11.5474 5.12802 11.5674 5.20268C11.6551 5.41877 11.7622 5.6265 11.8872 5.82334C12.0945 6.10525 12.0376 6.3504 11.8304 6.59554C11.6879 6.77618 11.5558 6.9648 11.4348 7.16049C11.3234 7.3488 11.2465 7.31092 11.1529 7.1226C11.0214 6.85963 10.8899 6.5766 10.7384 6.31362C10.6816 6.2022 10.6448 6.09077 10.7384 5.97934C10.9267 5.71636 11.115 5.43333 11.3223 5.15142C11.3423 5.09013 11.3657 5.05225 11.4359 5.05225Z" fill="#FC446A"/>
<path d="M3.51224 5.33541C3.50878 5.41394 3.47527 5.48814 3.41864 5.54267C3.23144 5.7867 3.04201 6.01736 2.8537 6.25693C2.70327 6.44525 2.63084 6.4263 2.55284 6.2001C2.50967 6.04222 2.44638 5.89054 2.36452 5.74881C2.06366 5.35324 2.1762 5.03343 2.51495 4.73257C2.68432 4.58215 2.77792 4.22446 2.98518 4.2434C3.20804 4.26234 3.19244 4.63897 3.30498 4.82729C3.36181 4.97772 3.43647 5.16604 3.51224 5.33541Z" fill="#FC446A"/>
<path d="M6.89981 5.74853C6.88087 5.85996 6.78838 5.93684 6.73044 6.03044C6.58001 6.25665 6.41064 6.46279 6.24015 6.68565C6.12872 6.83608 6.05183 6.85502 5.95823 6.64776C5.8468 6.36585 5.71309 6.10176 5.5816 5.81984C5.54561 5.75827 5.52991 5.68694 5.5367 5.61594C5.5435 5.54495 5.57247 5.47789 5.61949 5.42427L6.18443 4.68995C6.24126 4.61418 6.33486 4.52058 6.39169 4.67101C6.56107 5.00529 6.7115 5.3485 6.86193 5.68724C6.89981 5.69281 6.89981 5.72958 6.89981 5.74853Z" fill="#FC446A"/>
<path d="M4.37818 6.57441C4.28458 6.55547 4.28458 6.48081 4.24669 6.42398C4.11521 6.14207 4.00155 5.87798 3.87006 5.59606C3.83896 5.5498 3.82565 5.49384 3.83262 5.43853C3.83958 5.38322 3.86634 5.33231 3.90795 5.2952C4.11521 5.05006 4.30352 4.78709 4.49184 4.523C4.60327 4.37257 4.68015 4.35363 4.77375 4.56089C4.88518 4.82386 4.98101 5.08795 5.10804 5.33309C5.20164 5.52141 5.20164 5.65289 5.07016 5.80332C4.88184 6.02618 4.71247 6.25461 4.52415 6.48081C4.49072 6.52093 4.45729 6.57441 4.37818 6.57441Z" fill="#FC446A"/>
<path d="M10.3264 6.01725C10.3347 6.05085 10.3338 6.08607 10.3238 6.1192C10.3138 6.15234 10.295 6.18217 10.2695 6.20556L9.70459 6.9956C9.59316 7.14603 9.51627 7.16497 9.42267 6.95771C9.33527 6.72331 9.22829 6.49668 9.10287 6.28022C8.95244 6.03508 8.95244 5.86571 9.14076 5.64062C9.31417 5.4335 9.47138 5.21333 9.61099 4.98207C9.66782 4.9063 9.74248 4.83164 9.79931 4.94419C9.98762 5.31636 10.157 5.67405 10.3264 6.01725Z" fill="#FC446A"/>
<path d="M98.7888 22.9143C99.1086 22.8765 99.3916 22.6915 99.4473 22.3683C99.6546 21.3655 99.824 20.3738 99.9934 19.3754C100.05 18.9987 99.7482 18.397 99.2969 18.3591C99.2575 18.3617 99.2185 18.3497 99.1873 18.3255C99.1561 18.3013 99.1348 18.2665 99.1275 18.2276C99.1086 17.9825 98.9392 18.0048 98.7699 18.0048H92.9755C92.7304 18.0048 92.4674 17.929 92.3727 18.2867C92.3727 18.3246 92.2969 18.3435 92.2412 18.3625C91.8456 18.5129 91.6016 18.777 91.5637 19.2093C91.5637 19.2851 91.5258 19.3976 91.4523 19.3408C91.264 19.2093 91.001 19.2294 90.8684 19.0589C90.7358 18.8884 90.6054 18.8895 90.4361 18.8895H87.4955C87.3261 18.8895 87.1946 18.8516 87.1188 18.6823C86.9494 18.2867 86.4224 18.2488 86.2151 17.8733C86.1962 17.8543 86.1583 17.8543 86.1215 17.8354C85.2936 17.5724 84.4657 17.3083 83.6367 17.0632C83.5431 17.0253 83.4294 16.9317 83.3358 17.0821C83.3168 17.1011 83.2979 17.139 83.279 17.1579C83.1854 17.2147 83.1475 17.3273 83.0338 17.3652C82.7519 17.4588 82.5825 17.685 82.4499 17.9491C82.3309 18.1463 82.2302 18.3541 82.1491 18.5697C82.0555 18.8149 81.9039 18.8895 81.641 18.8895C80.4932 18.8706 79.3444 18.8895 78.1967 18.8895C78.0852 18.8895 77.9148 18.8516 77.8769 18.9463C77.8011 19.1915 77.576 19.2283 77.3877 19.3419C77.2804 19.3986 77.1873 19.4789 77.1155 19.5767C77.0437 19.6746 76.995 19.7875 76.9732 19.9069C76.977 19.9389 76.9699 19.9712 76.9528 19.9985C76.9358 20.0259 76.91 20.0466 76.8796 20.0573C76.786 20.0762 76.7682 19.9815 76.7481 19.9258C76.503 19.2673 75.9948 18.8527 75.4488 18.4772C75.4109 18.4393 75.3731 18.4204 75.3374 18.3836C75.0365 18.1017 74.6789 18.0259 74.2833 18.0259H64.5522C64.2702 18.0259 63.9493 17.9323 63.8178 18.3268C63.7989 18.3647 63.7064 18.3836 63.6485 18.4026C63.4635 18.4967 63.3027 18.6321 63.1782 18.7981C63.0615 19.0066 62.9909 19.2376 62.971 19.4756C62.952 19.5692 62.8774 19.7576 62.8016 19.6071C62.6133 19.2728 62.2935 19.099 61.9737 18.9296C61.9358 18.7413 61.7854 18.7792 61.6539 18.7792H59.9969C59.3384 18.7792 58.6798 18.7413 58.0391 18.7981L58.0202 18.7792C58.0151 18.7792 58.0103 18.7812 58.0068 18.7848C58.0032 18.7883 58.0012 18.7931 58.0012 18.7981C57.9255 18.8917 57.9076 19.0433 57.7561 19.0611C57.1911 19.1725 57.0597 19.6071 57.0597 20.0963V27.7571C57.0597 27.9799 56.9839 28.0769 56.7967 28.1147H55.0138C54.8065 28.0211 54.8444 27.8518 54.8444 27.6813V20.0161C54.8444 19.6818 54.7687 19.3575 54.4678 19.1692C54.2605 19.0377 53.9976 18.9809 53.8282 18.7736H53.6209C53.6001 18.7536 53.5737 18.7404 53.5452 18.7357H49.2875C49.2589 18.7404 49.2325 18.7536 49.2117 18.7736H49.0289C49.01 18.7357 48.9911 18.7547 48.9721 18.7736V18.8115C48.9771 18.8115 48.982 18.8135 48.9855 18.8171C48.9891 18.8206 48.9911 18.8254 48.9911 18.8305C48.986 18.8305 48.9812 18.8285 48.9777 18.8249C48.9741 18.8214 48.9721 18.8165 48.9721 18.8115C48.9342 18.8683 48.8963 18.943 48.8607 18.9998C48.503 19.0934 48.1642 19.245 48.0885 19.6584C48.0872 19.678 48.0788 19.6966 48.0648 19.7105C48.0509 19.7244 48.0324 19.7328 48.0127 19.7342C47.9559 19.7342 47.9369 19.6773 47.9191 19.6227C47.8821 19.4712 47.802 19.3337 47.6885 19.2267C47.575 19.1197 47.4329 19.0479 47.2795 19.0199C47.2444 19.0149 47.2114 18.9999 47.1847 18.9765C47.158 18.9532 47.1387 18.9226 47.1291 18.8884C47.0912 18.7001 46.9786 18.7001 46.8282 18.7001C45.3039 18.7001 43.7973 18.7001 42.273 18.719C42.1794 18.719 42.0847 18.6811 42.01 18.7759C41.9393 18.7974 41.879 18.8442 41.8406 18.9073C41.7838 18.8884 41.7838 18.9263 41.8027 18.9642C41.7838 19.0021 41.7459 19.021 41.727 19.0578C41.3693 19.0957 41.1999 19.3397 41.0305 19.6227L38.2014 24.7596C38.1445 24.8532 38.1256 24.9825 38.013 24.9825C37.8816 24.9825 37.8816 24.851 37.8247 24.7596C36.9021 23.0659 35.9806 21.3532 35.0579 19.6584C34.9922 19.5214 34.8947 19.4021 34.7736 19.3105C34.6524 19.2188 34.5112 19.1574 34.3615 19.1313C34.2679 19.0199 34.2501 18.8494 34.0606 18.8305C34.0417 18.8115 34.0417 18.7926 34.0228 18.7926H29.355C29.336 18.7926 29.336 18.8115 29.3171 18.8305C29.1288 18.8494 29.0942 19.0377 28.9973 19.1503C28.6775 19.2071 28.4892 19.4132 28.3387 19.6773L27.6613 20.9766C27.6234 21.0524 27.6044 21.1838 27.4729 21.146C27.3793 21.1081 27.4351 20.9955 27.454 20.9231C27.4919 20.7158 27.5298 20.4896 27.5654 20.2835C27.659 19.7375 27.4339 19.3609 26.9258 19.2104C26.8322 19.1915 26.7375 19.1725 26.703 19.0789C26.6272 18.9285 26.5146 18.9475 26.3832 18.9475H23.4637C23.2186 18.9475 23.0492 18.9096 22.9367 18.6655C22.828 18.4819 22.6528 18.347 22.4475 18.2889C22.3539 18.251 22.2592 18.2131 22.2246 18.1006C22.1867 17.9502 22.0552 17.9312 21.9427 17.8933C21.1894 17.6705 20.4562 17.4231 19.703 17.1969C19.44 17.1211 19.1759 16.974 19.0255 17.3473C18.986 17.3931 18.9335 17.4257 18.8751 17.4409C18.6861 17.5138 18.5314 17.655 18.4416 17.8365C18.2849 18.0963 18.1464 18.3666 18.0271 18.6455C17.9335 18.8906 17.7819 18.9653 17.519 18.9653C16.3712 18.9463 15.2224 18.9653 14.0747 18.9653C13.9633 18.9653 13.7928 18.9274 13.7549 19.0221C13.6613 19.2851 13.3972 19.323 13.2089 19.4556C13.115 19.5216 13.0351 19.6054 12.9737 19.7024C12.9123 19.7993 12.8707 19.9074 12.8512 20.0205C12.6818 20.9799 12.6439 21.9405 12.5693 22.9177C12.5124 23.5762 12.927 23.9718 13.5855 23.9718H15.0876C15.4074 23.9718 15.4219 24.0097 15.2759 24.2916L12.791 29.2045L12.6796 29.4274C12.6606 29.4653 12.6228 29.521 12.5682 29.5031C12.5509 29.4944 12.5364 29.481 12.5264 29.4645C12.5163 29.4479 12.5111 29.4289 12.5113 29.4096C12.4786 29.2251 12.4347 29.0427 12.3798 28.8635C12.2105 28.2607 11.9286 27.7348 11.3257 27.4328C11.3068 27.3949 11.2878 27.376 11.2689 27.3392C11.2046 27.2411 11.1132 27.1637 11.0059 27.1163L10.9491 27.0595C10.7817 26.7918 10.5485 26.5716 10.2716 26.4199C10.2716 26.3634 10.2527 26.3445 10.2148 26.3631C10.1591 26.3074 10.1591 26.3074 10.1033 26.2516C10.0664 26.2147 10.0288 26.1771 9.99191 26.1402C9.88597 25.9556 9.72937 25.8052 9.54062 25.7068C9.54175 25.699 9.54105 25.6912 9.53859 25.6838C9.53613 25.6763 9.53198 25.6696 9.52646 25.6641C9.52094 25.6586 9.51421 25.6544 9.5068 25.652C9.4994 25.6495 9.49152 25.6488 9.48379 25.6499L9.50274 25.631L9.48379 25.6499C9.41835 25.5246 9.31227 25.4252 9.18294 25.368C9.1824 25.3581 9.17824 25.3488 9.17124 25.3418C9.16425 25.3348 9.15492 25.3307 9.14505 25.3301C9.05525 25.1486 8.90055 25.0074 8.71159 24.9346C8.71159 24.8781 8.69265 24.8592 8.65476 24.8777C8.65476 24.8209 8.63582 24.802 8.57899 24.8209C8.31208 24.4851 7.9944 24.193 7.63741 23.9551C7.63741 23.8793 7.58058 23.8437 7.50592 23.8236C7.38526 23.6213 7.20885 23.458 6.99781 23.3534H6.97552C6.97552 23.2965 6.95658 23.2419 6.97552 23.2029C7.10701 23.0525 7.6909 23.1461 7.76555 23.3344C7.97281 23.7857 8.34944 23.974 8.78179 23.8994C9.69959 23.7773 10.6105 23.6077 11.5107 23.3913C12.0378 23.2598 12.3007 22.8263 12.2829 22.277C12.2298 21.749 12.1291 21.2268 11.982 20.717C11.7748 19.9637 11.3792 19.3241 10.6828 18.9341C10.2683 18.5196 9.79803 18.1998 9.21414 18.1998C6.72926 18.1808 4.22656 18.1998 1.74169 18.1998C1.55337 18.1998 1.44083 18.2566 1.4074 18.4449C0.918224 18.5563 0.654136 18.8405 0.560535 19.3675C0.425706 20.1687 0.256334 20.9576 0.049075 21.7477C-0.0623543 22.2179 0.0111891 22.5945 0.349934 22.9143C0.406134 22.957 0.448559 23.0152 0.471937 23.0818C0.495314 23.1484 0.498612 23.2203 0.481421 23.2887C0.424592 23.623 0.481421 23.9283 0.763337 24.1735C1.68597 24.9457 2.51389 25.7736 3.39864 26.5826C4.1519 27.2601 4.88511 27.9565 5.63837 28.634C5.6952 28.6908 5.7888 28.7276 5.7498 28.8413C5.71191 28.917 5.61831 28.8981 5.56148 28.8981H5.03665C4.88622 28.8981 4.81379 28.8602 4.77368 28.6908C4.73651 28.561 4.66688 28.4427 4.57135 28.3472C4.47583 28.2516 4.35755 28.182 4.22767 28.1448C4.1519 28.1259 4.03936 28.1259 4.02042 28.0334C3.96359 27.7704 3.81316 27.8261 3.64378 27.883C2.87158 28.1281 2.10049 28.3721 1.32828 28.6362C1.21685 28.6741 1.08314 28.6931 1.04637 28.8056C1.00848 28.956 0.891481 28.9716 0.780051 29.0318C0.365534 29.2012 0.0836181 29.7282 0.177219 30.1238C0.384477 30.9707 0.666393 31.7952 1.19345 32.5329C1.77734 33.3229 2.51055 33.9258 3.54573 33.9637C5.23945 34.0015 6.95212 34.0015 8.64696 33.9637C9.56959 33.9447 10.4543 33.7564 11.2098 33.1915C11.455 33.0031 11.6244 32.9686 11.8684 33.1915C12.011 33.2813 12.1715 33.3391 12.3386 33.3608C13.2802 33.606 14.2207 33.85 15.1433 34.0951C15.6514 34.2266 16.047 34.1141 16.3289 33.6439C16.5357 33.2962 16.7243 32.938 16.8938 32.5708C16.9874 32.3635 17.0822 32.3257 17.2705 32.495C17.666 32.8717 18.0795 33.2104 18.475 33.587C18.9642 34.0383 19.567 34.0573 20.0751 33.6249C20.8652 32.9474 21.6753 32.2878 22.4843 31.6114C22.6726 31.442 22.7472 31.442 22.8798 31.6872C23.2141 32.3836 23.4637 33.1179 23.8827 33.7765C23.9862 33.9403 24.1392 34.067 24.3195 34.1382C24.4998 34.2093 24.698 34.2211 24.8856 34.172C25.9207 33.8901 26.937 33.645 27.9532 33.3252C28.273 33.2316 28.4992 33.1023 28.5928 33.5324C28.6243 33.6091 28.6788 33.6742 28.7488 33.7185C29.0118 33.9258 29.3516 33.9637 29.6714 33.9637C30.7066 33.9826 31.7607 33.9637 32.7915 33.9637C33.6573 33.9637 34.0172 33.606 34.0172 32.7379V29.4274C34.0172 29.3338 33.9604 29.2201 34.093 29.1822C34.2044 29.1633 34.2244 29.2937 34.2813 29.3705C34.7894 30.2742 35.2975 31.1534 35.8246 32.0616C36.1065 32.5507 36.3516 33.0644 36.6904 33.5101C36.9533 33.8678 37.2932 34.0561 37.7256 34.0372C38.1958 34.0183 38.6671 33.9804 39.1374 33.9804C39.777 33.9993 40.2104 33.6985 40.4923 33.1525C41.0383 32.1362 41.5843 31.101 42.1304 30.0848C42.1872 29.9912 42.1872 29.8218 42.3376 29.862C42.449 29.8998 42.3944 30.0503 42.3944 30.1439C42.3944 31.1601 42.3566 32.1763 42.4323 33.1747C42.4702 33.6829 42.7521 34.0027 43.2413 34.0027C44.5963 34.0212 45.9516 34.0212 47.3074 34.0027C47.7586 34.0027 48.0227 33.7207 48.1163 33.2683C48.1469 33.1072 48.1596 32.9431 48.1542 32.7792V25.3234C48.1542 24.5702 48.0227 24.6649 48.8317 24.646C49.1136 24.646 49.2083 24.7217 49.2083 25.0226C49.1894 27.62 49.2083 30.1985 49.2083 32.7959C49.2083 33.6049 49.585 33.9815 50.3939 33.9815H61.8979C62.6879 33.9815 63.0835 33.567 63.0835 32.7769V30.3255C63.0835 30.2497 63.0456 30.1372 63.1403 30.1182C63.2351 30.0993 63.2518 30.2118 63.2908 30.2876C63.4037 30.4604 63.4566 30.6656 63.4412 30.8715C63.4223 31.5111 63.4223 32.1518 63.4412 32.7725C63.4412 33.45 63.8557 33.9013 64.4764 33.9013C65.4547 33.9013 66.4153 33.9013 67.3936 33.8823C67.6544 33.8844 67.9121 33.8265 68.1469 33.7129C68.5792 33.4901 68.655 33.0923 68.655 32.6588C68.655 31.8688 68.6739 31.0776 68.655 30.2876C68.655 29.9299 68.9369 29.9299 69.1442 29.8363C69.367 29.7427 69.3893 29.9299 69.464 30.0436C69.9409 30.7798 70.4895 31.467 71.102 32.095C71.9109 32.9229 72.7957 33.655 73.9445 33.9581C74.6978 34.1653 75.4878 34.24 76.26 34.3537C76.4582 34.3839 76.6608 34.3488 76.8373 34.2537C77.0138 34.1586 77.1546 34.0087 77.2384 33.8266C77.332 33.6193 77.4456 33.6037 77.615 33.6572C78.1989 33.8077 78.7627 33.9391 79.3466 34.0907C79.9673 34.2411 80.3629 34.0907 80.6637 33.5068C80.8331 33.2059 80.9835 32.904 81.1339 32.5842C81.2454 32.3613 81.3412 32.3769 81.5106 32.5273C81.9429 32.9229 82.3574 33.2995 82.7909 33.6751C83.2422 34.0706 83.7503 34.0896 84.2027 33.7129C85.0306 33.0355 85.8586 32.358 86.6876 31.6426C86.9104 31.4543 87.0074 31.4732 87.1199 31.7362C87.4018 32.3758 87.7038 32.9976 87.9857 33.6372C88.1551 34.0138 88.7201 34.3147 89.1524 34.1832C89.8488 33.9759 90.5642 33.8065 91.2606 33.5993C91.3921 33.5614 91.5058 33.5235 91.5949 33.6561C91.7832 33.879 92.0462 33.9191 92.3103 33.9191H98.7665C99.0309 33.9331 99.2902 33.842 99.4876 33.6656C99.6851 33.4892 99.8048 33.2418 99.8206 32.9775C99.8964 32.1307 99.9321 31.2648 99.99 30.4146C100.008 30.2492 99.9832 30.0819 99.9181 29.9287C99.8529 29.7756 99.7495 29.6417 99.6178 29.5399C99.4295 29.4084 99.1287 29.4084 99.0718 29.1065C99.0718 29.0875 98.9961 29.0686 98.9604 29.0686C98.6785 29.1065 98.6596 28.9371 98.6596 28.7343V23.4971C98.4712 23.0826 98.5481 22.9511 98.791 22.9132L98.7888 22.9143ZM18.6455 28.8056L20.0005 26.1514C20.0384 26.0756 20.0573 25.9441 20.1699 25.963C20.2635 25.982 20.2813 26.0745 20.3014 26.1514C20.4707 26.5469 20.6356 26.9414 20.8095 27.318C20.4518 27.5063 20.1509 27.7883 19.8501 28.0334C19.4355 28.3677 19.0411 28.7488 18.5887 29.0496C18.578 28.9638 18.5981 28.8769 18.6455 28.8045V28.8056ZM17.8176 29.7282C17.7062 29.804 17.6103 29.8976 17.4978 29.9734C17.6059 29.8976 17.7173 29.804 17.8165 29.7282H17.8176ZM28.3198 31.1211C28.3118 31.1723 28.2991 31.2227 28.2819 31.2715C28.0936 31.1022 28.0591 30.8949 27.9811 30.7066C27.2846 29.1822 26.6071 27.6757 25.9296 26.1514C25.6288 25.4928 25.3458 24.8343 25.0449 24.1935C24.9691 24.0052 25.007 23.9484 25.1953 23.9484C25.7034 23.9484 26.2116 24.0242 26.7007 23.798C26.7576 23.7601 26.8122 23.8169 26.8701 23.8548C27.2278 24.1178 27.6044 24.0999 27.9844 23.9116C28.2474 23.7801 28.361 23.8548 28.361 24.1345C28.3755 26.4533 28.2819 28.7867 28.3198 31.1211ZM84.2584 27.8651C83.7314 28.2797 83.2556 28.7499 82.6984 29.1265C82.7174 28.9037 82.8867 28.7309 82.9803 28.5426C83.3949 27.7147 83.8083 26.9046 84.2228 26.0912C84.2607 26.0344 84.2607 25.9408 84.3543 25.9218C84.4479 25.9218 84.4479 26.0154 84.4857 26.0722C84.6362 26.5057 84.9003 26.8812 85.0128 27.3336C84.7119 27.4451 84.5047 27.6679 84.2595 27.8607L84.2584 27.8651ZM76.8807 24.0253C76.8996 23.6676 76.8807 23.6676 77.2005 23.818C77.3673 23.887 77.5472 23.9189 77.7276 23.9116H79.2876C79.5104 23.9116 79.5884 23.9495 79.4759 24.1935C78.629 25.8316 77.8044 27.4874 76.9721 29.1254C76.8963 29.2758 76.8216 29.4597 76.5765 29.3705C76.5116 29.6741 76.4743 29.9829 76.4651 30.2932C76.4743 29.9829 76.5116 29.6741 76.5765 29.3705C76.5765 29.1822 76.4651 29.1076 76.2946 29.0886C75.655 28.9772 75.0521 28.8067 74.5117 28.4111C74.403 28.3337 74.3022 28.2456 74.2108 28.1482C74.2031 28.1493 74.1952 28.1486 74.1878 28.1461C74.1804 28.1437 74.1737 28.1395 74.1682 28.134C74.1627 28.1285 74.1585 28.1218 74.1561 28.1144C74.1536 28.1069 74.1529 28.0991 74.154 28.0913L74.2108 28.1482C74.1919 28.1292 74.173 28.0913 74.1351 28.0724C74.0036 27.8495 74.0972 27.7381 74.3234 27.6389C74.6709 27.4897 75.0063 27.3135 75.3263 27.1119C76.3993 26.3586 76.8127 25.2677 76.8863 24.0253H76.8807ZM68.4856 23.2353C68.4856 23.0848 68.5614 23.0659 68.6929 23.0659H71.4975C71.648 23.0659 71.7048 23.1417 71.6859 23.2731V23.5551C71.8202 23.5116 71.9471 23.4481 72.0625 23.3667C71.9471 23.448 71.8201 23.5115 71.6859 23.5551C71.0463 23.8749 70.3487 24.0253 69.6723 24.2515C69.2957 24.383 68.9191 24.5524 68.5246 24.6092C68.5057 24.1389 68.4867 23.6865 68.4867 23.2353H68.4856ZM62.971 26.6416C62.9179 26.5645 62.8913 26.4722 62.8952 26.3787C62.8952 25.3624 62.8952 24.3273 62.9141 23.311C62.9141 23.1996 62.8384 23.0102 63.0646 23.0102C63.2718 23.0291 63.3097 23.1606 63.2874 23.3445C63.2685 24.1913 63.2685 25.0382 63.2685 25.885C63.2685 26.0734 63.2874 26.2617 63.2874 26.45C63.2084 26.5508 63.0942 26.6181 62.9676 26.6383C62.9314 26.7015 62.9119 26.7728 62.9108 26.8456C62.9222 26.7753 62.9425 26.7068 62.971 26.6416ZM91.4835 29.258C90.7302 27.6022 89.9781 25.9263 89.2248 24.2704C89.0933 23.9885 89.1134 23.9696 89.4321 23.9506C89.7776 23.9659 90.1238 23.9532 90.4673 23.9127C90.9186 23.8191 91.1258 23.5929 91.2205 23.1595C91.2177 23.1271 91.2243 23.0946 91.2395 23.0659C91.2774 22.9155 91.2584 22.6893 91.3509 22.6324C91.5203 22.521 91.5738 22.7829 91.7086 22.8397C92.0008 22.958 92.3176 23.0031 92.6312 22.9712C92.8764 22.9522 92.9655 23.028 92.951 23.291C92.9321 25.0738 92.9321 26.8667 92.951 28.6396C92.951 28.8279 92.8942 28.9025 92.7059 28.9025C92.649 28.9025 92.5555 28.8457 92.5176 28.9404C92.4797 28.9594 92.4607 28.9783 92.424 28.9973C92.3671 28.9973 92.3482 29.0351 92.3671 29.073C92.3698 29.1112 92.3633 29.1494 92.3482 29.1845C92.2167 29.2602 92.0473 29.2602 91.9158 29.3728C91.7086 29.6179 91.596 29.5043 91.4835 29.2614V29.258Z" fill="#FC446A"/>
<path d="M62.2892 4.84609C62.3608 4.85965 62.4242 4.90073 62.4659 4.96052C62.5075 5.0203 62.5241 5.09402 62.512 5.16589V10.6805C62.512 10.9435 62.4931 11.2265 62.4742 11.4895C62.478 11.553 62.462 11.6162 62.4282 11.6701C62.3944 11.724 62.3447 11.7661 62.2858 11.7904C61.9515 11.9597 61.8156 12.2795 61.8156 12.6183C61.797 13.3901 61.797 14.1619 61.8156 14.9338C61.8345 15.4608 62.0975 15.7806 62.6246 15.8375C63.215 15.8969 63.8109 15.8714 64.3941 15.7617C64.8264 15.6859 65.2788 15.6113 65.6744 15.3851C66.5402 14.9148 66.86 14.1047 67.0673 13.22C67.2177 12.5804 67.1241 11.9207 67.143 11.2811C67.143 11.1118 67.0862 10.8856 67.162 10.7541C67.2734 10.5658 67.4818 10.7541 67.6512 10.7351C69.063 10.7162 70.4748 10.7351 71.8855 10.7162C73.3719 10.6972 74.2199 9.7746 74.2756 8.36391C74.3324 6.65124 74.3135 4.91963 74.2946 3.18802C74.2756 2.34115 73.9937 1.56895 73.2783 1.04189C72.875 0.384455 72.2877 0.102539 71.5378 0.102539H63.4982C63.1973 0.102539 62.9901 0.159368 62.9522 0.498113C62.7686 0.554234 62.6052 0.662256 62.4816 0.809155C62.358 0.956055 62.2796 1.13556 62.2558 1.32603C62.1053 2.13501 61.9215 2.9451 61.7287 3.73513C61.5783 4.3558 61.7097 4.65777 62.2936 4.84943L62.2892 4.84609ZM69.1777 4.93969C69.4786 4.92074 69.6101 4.99651 69.5544 5.31632C69.5354 5.40992 69.5544 5.52357 69.5354 5.61718C69.6025 5.63889 69.6722 5.65162 69.7427 5.65506C69.6715 5.66091 69.6 5.64784 69.5354 5.61718C68.7079 5.67677 67.877 5.67043 67.0505 5.59823C67.0316 4.93969 67.0316 4.93969 67.7091 4.93969C68.1983 4.93969 68.6874 4.95863 69.1777 4.93969Z" fill="#FC446A"/>
<path d="M49.2118 5.50459C49.2118 5.78651 49.4937 5.91911 49.682 6.08848C51.0348 7.32981 52.3719 8.59119 53.7291 9.83362C53.9921 10.0788 54.2562 10.3228 54.5014 10.5679C54.5771 10.6248 54.7086 10.7563 54.5014 10.7752C54.1565 10.794 53.811 10.794 53.4662 10.7752C53.4283 10.7752 53.3547 10.6994 53.3347 10.6638C53.2865 10.541 53.2103 10.4312 53.1122 10.343C53.0142 10.2548 52.8969 10.1907 52.7697 10.1557C52.7129 10.1367 52.6383 10.0799 52.6383 10.0242C52.6004 9.57288 52.3563 9.74225 52.1112 9.81691C51.9998 9.85479 51.8661 9.89268 51.7535 9.92834C51.1696 10.1356 50.549 10.2626 49.9706 10.549C49.7823 10.5869 49.5751 10.6058 49.6364 10.8833C49.6266 10.9225 49.6052 10.9579 49.5749 10.9847C49.5447 11.0115 49.5071 11.0286 49.467 11.0337C49.0157 11.2031 48.8463 11.485 48.8831 11.9753C48.9106 12.1833 48.9676 12.3863 49.0525 12.5781C49.3344 13.406 49.6731 14.2161 50.3138 14.8557C50.9167 15.4396 51.5942 15.7784 52.4789 15.7594C53.4015 15.7215 54.342 15.7784 55.2646 15.7594C56.3377 15.7405 57.4108 15.8709 58.4649 15.5711C59.3496 15.326 60.1207 14.9315 60.5542 14.1025C61.0549 13.1206 61.1911 11.9929 60.9386 10.9201C60.8071 10.3362 60.543 9.82805 60.016 9.48931C59.9781 9.43248 59.9402 9.35782 59.9046 9.30099C59.8499 9.17535 59.7477 9.07642 59.6204 9.02576C59.6204 9.0447 59.6393 9.06365 59.6393 9.08259C59.6393 9.06365 59.6204 9.0447 59.6204 9.02576C59.4131 8.8185 59.1881 8.63019 58.9808 8.42293C58.9203 8.29394 58.8126 8.19305 58.6799 8.14101C58.4571 7.91815 58.2097 7.70755 57.9835 7.48247C57.9835 7.42564 57.9456 7.38886 57.8721 7.38886L57.2325 6.80498C57.167 6.67963 57.061 6.58023 56.9316 6.52306C56.7088 6.3002 56.4614 6.0896 56.2352 5.86451C56.1827 5.76338 56.0957 5.68434 55.99 5.64165C55.7672 5.45334 55.5577 5.24608 55.3315 5.05776C55.5009 4.92628 56.2352 4.86945 56.4046 5.00093C56.4394 5.023 56.466 5.05588 56.4803 5.09453C56.7623 5.69737 57.0263 5.80991 57.6659 5.67842L59.9814 5.22714C60.621 5.11571 60.8283 4.8505 60.8094 4.2109C60.7606 3.39563 60.5436 2.59929 60.172 1.872C60.0278 1.56679 59.8051 1.30532 59.5268 1.11428C59.5079 1.09534 59.5079 1.07639 59.4889 1.05745C59.5079 1.00062 59.4889 0.96385 59.4321 0.981679C59.3112 0.804387 59.1581 0.651317 58.9808 0.53039C58.9997 0.473561 58.9808 0.473561 58.924 0.492504C58.8766 0.457125 58.8262 0.425813 58.7735 0.398904C58.5886 0.23569 58.3594 0.130989 58.115 0.0980445C58.0392 0.0980445 57.9456 0.0791016 57.8699 0.0791016H50.3417C50.2659 0.0791016 50.1913 0.0980445 50.1344 0.0980445C50.023 0.398904 49.8002 0.587219 49.5138 0.756592C49.3634 0.832364 49.3255 1.01956 49.2909 1.19005C49.1594 1.96226 49.009 2.75006 48.8018 3.50555C48.726 3.80641 48.5945 4.18304 48.8207 4.40924C49.1784 4.72905 49.2163 5.08673 49.2163 5.50125L49.2118 5.50459ZM59.7519 9.17508C59.733 9.15613 59.714 9.11825 59.6761 9.09931C59.7151 9.11825 59.7341 9.15613 59.7519 9.17508Z" fill="#FC446A"/>
<path d="M75.5056 15.7628C77.3129 15.7817 79.1192 15.7817 80.9077 15.7628C81.5283 15.7628 81.886 15.4619 81.9105 14.9159C81.9295 14.069 82.042 13.2032 82.0609 12.353C82.0799 11.7691 81.8916 11.5251 81.3077 11.3936C81.3077 11.1708 81.2319 11.0359 80.9879 11.0738L80.9311 11.017V5.16584C80.9311 4.92069 81.3634 4.67666 81.5896 4.80815C81.9247 4.98576 82.3038 5.06312 82.6816 5.03101C82.9635 5.01206 83.0159 5.12461 83.0014 5.3887C82.9825 6.36705 83.0014 7.32757 83.0014 8.30591C83.0014 10.3763 83.0014 12.4656 82.9825 14.5359C82.9825 15.2892 83.3023 15.6647 84.0745 15.6647H87.3304C88.0648 15.6647 88.4035 15.3304 88.4035 14.5916V8.83632C88.4035 8.74272 88.3467 8.62906 88.4603 8.59117C88.5918 8.55329 88.6108 8.7026 88.6676 8.77949L92.4562 15.1599C92.7013 15.5555 93.0211 15.7628 93.5103 15.7438C94.8274 15.7249 96.1456 15.7249 97.4627 15.7249C98.1591 15.7249 98.5168 15.3672 98.5168 14.6518V1.96559C98.5262 1.79003 98.5262 1.61409 98.5168 1.43853C98.4789 0.968295 98.2349 0.685265 97.7636 0.572721C97.7257 0.441234 97.8204 0.271862 97.6321 0.19609V0.159318C97.604 0.142349 97.5709 0.135653 97.5385 0.140375H94.2691C94.2313 0.140375 94.1577 0.102489 94.1755 0.197204C93.9527 0.23509 94.0062 0.404463 93.9872 0.554892C93.4412 0.724265 93.2718 0.988352 93.2529 1.60901C93.234 3.28045 93.215 4.94075 93.1961 6.61553C93.1961 6.70913 93.2529 6.86068 93.1203 6.87851C93.0089 6.89745 92.9888 6.76708 92.9509 6.69019C91.9481 4.97752 90.9742 3.26485 89.9769 1.55218C89.7886 1.23238 89.6571 0.855751 89.2615 0.686379C89.2426 0.648493 89.2047 0.610607 89.1857 0.57495C89.2047 0.481349 89.2047 0.46352 89.1478 0.481349C89.091 0.36992 89.0364 0.236204 88.8849 0.218376C88.8038 0.177156 88.7113 0.163839 88.6219 0.18049H84.2962C84.1458 0.18049 83.9954 0.142604 83.8449 0.199433C83.7881 0.218376 83.7513 0.256262 83.6945 0.275205C83.6377 0.275205 83.6187 0.294148 83.6566 0.332034C83.6377 0.36992 83.5998 0.425634 83.5808 0.46352C83.524 0.46352 83.524 0.482463 83.543 0.520349C83.524 0.558235 83.4861 0.596121 83.4672 0.631779C83.245 0.719448 83.0637 0.887227 82.9591 1.10201C82.7518 1.47864 82.5445 1.85527 82.3384 2.2163C82.3005 2.29208 82.2626 2.40462 82.169 2.36673C82.0576 2.32885 82.1311 2.23525 82.1311 2.15947C82.169 1.93662 82.188 1.72601 82.2247 1.51987C82.3005 1.04964 82.1133 0.710893 81.6598 0.541521C81.5484 0.503635 81.4715 0.465749 81.4904 0.334262C81.5473 0.0712891 81.3968 0.0712891 81.2085 0.0712891H75.958C75.7507 0.0712891 75.6382 0.128118 75.6237 0.334262C75.6309 0.380886 75.6218 0.428581 75.5978 0.469218C75.5738 0.509856 75.5365 0.540922 75.4922 0.557121C75.003 0.70755 74.9083 1.12207 74.8715 1.53547C74.7958 2.28873 74.74 3.04088 74.6264 3.79414C74.5506 4.26437 74.7022 4.60312 75.0777 4.77249C75.2924 4.87995 75.5328 4.92512 75.7719 4.90286C76.0727 4.86498 76.1485 4.97864 76.1296 5.2795C76.1106 5.69401 76.1296 6.08847 76.1296 6.50522C76.1296 8.01063 76.1106 9.51381 76.1106 11.0036C76.0348 11.0226 75.9602 11.0226 75.8878 11.0415C75.8499 10.985 75.8127 10.985 75.7763 11.0415C75.5691 11.0983 75.6649 11.3045 75.588 11.4181C75.2303 11.5296 74.9484 11.7524 74.8916 12.1335C74.7802 13.0183 74.6843 13.8841 74.6286 14.7688C74.535 15.4084 74.8738 15.7717 75.5134 15.7717L75.5056 15.7628Z" fill="#FC446A"/>
<path d="M80.9836 21.8981H77.9159C77.6529 21.8981 77.5393 21.8412 77.5816 21.5214C77.6574 20.9754 77.693 20.4294 77.732 19.8656C77.729 19.7712 77.7353 19.6768 77.751 19.5837C77.8268 18.9062 77.8624 18.8683 78.541 18.8683H81.5106C81.7502 18.8689 81.9895 18.8498 82.226 18.8115C82.2879 18.7934 82.3452 18.7622 82.3939 18.7199C82.4425 18.6775 82.4815 18.6252 82.5079 18.5663C82.7709 18.115 83.016 17.6626 83.2612 17.1924C83.3548 17.0041 83.4684 16.9695 83.6757 17.042C84.4657 17.305 85.2569 17.5501 86.0658 17.7952C86.3478 17.871 86.4235 18.0181 86.3288 18.2844C86.272 18.4348 86.2174 18.5853 86.1594 18.7736C86.2205 18.7935 86.2837 18.8062 86.3478 18.8115C87.7217 18.8304 89.0956 18.8494 90.4706 18.8872C90.8473 18.8872 90.9219 18.9441 90.8662 19.3018C90.7548 20.0918 90.6211 20.8829 90.4896 21.673C90.4517 21.8958 90.3013 21.936 90.094 21.936H87.8721C87.881 21.9994 87.8937 22.0623 87.91 22.1243C89.2278 25.0415 90.5453 27.9465 91.8624 30.8392C91.956 31.0464 91.9192 31.159 91.693 31.2347C90.7336 31.4977 89.792 31.7807 88.8326 32.0437C88.7724 32.0428 88.7133 32.0268 88.6607 31.9972C88.6082 31.9676 88.5639 31.9254 88.5318 31.8743C87.8543 30.3879 87.1768 28.8814 86.4993 27.3949C85.8029 25.8705 85.1064 24.3272 84.41 22.8029C84.41 22.7839 84.3721 22.7839 84.3342 22.765C83.9999 23.4235 83.6567 24.1021 83.318 24.7596C82.1324 27.094 80.9468 29.4084 79.779 31.7429C79.6676 31.9657 79.5339 32.0058 79.3088 31.9501C78.3672 31.705 77.4267 31.4609 76.4294 31.2158C76.4105 31.4387 76.4105 31.6493 76.3915 31.8554C76.3726 32.1752 76.298 32.251 75.977 32.1897C75.4689 32.1139 74.9608 32.0203 74.4716 31.9445C73.3796 31.7752 72.5517 31.1723 71.7973 30.4202C70.9887 29.6346 70.2921 28.7415 69.727 27.7659C69.5576 27.484 69.4072 27.3893 69.0874 27.5587C68.7297 27.747 68.3341 27.8595 67.9586 28.01C67.8739 28.0323 67.8004 28.0849 67.7519 28.1578C67.7035 28.2307 67.6834 28.3189 67.6956 28.4056C67.7146 29.4084 67.6956 30.3823 67.6956 31.3796C67.6956 31.6615 67.5842 31.7373 67.319 31.7373C66.3596 31.7373 65.399 31.7373 64.4396 31.7562C64.1945 31.7562 64.1198 31.6626 64.1198 31.4219C64.1384 30.7259 64.1384 30.0294 64.1198 29.3326C64.1168 29.1348 64.0651 28.9408 63.9694 28.7677C63.6117 28.1281 63.254 27.5063 62.8774 26.8667C62.7838 26.7163 62.7838 26.6439 62.9888 26.5469C63.3438 26.382 63.6838 26.1866 64.0051 25.963C64.0619 25.9251 64.0808 25.7936 64.0808 25.7179C64.0998 24.4921 64.0998 23.2664 64.0998 22.0474C64.0875 21.9413 64.1128 21.8343 64.1712 21.745C64.2297 21.6556 64.3175 21.5895 64.4196 21.5582C64.7742 21.4243 65.111 21.2472 65.4224 21.0312C65.291 21.0312 65.1405 21.0501 65.0079 21.0501H63.4479C63.2251 21.0501 63.1281 20.9743 63.2028 20.7303C63.3911 20.0528 63.5605 19.3564 63.7488 18.6789C63.8056 18.4906 63.8424 18.3022 63.956 18.1708C64.0617 18.0663 64.2031 18.0058 64.3516 18.0014C65.8203 17.9824 67.2878 18.0014 68.7742 18.0014H74.3234C74.5687 17.9973 74.8121 18.0436 75.0387 18.1376C75.2653 18.2315 75.4701 18.371 75.6405 18.5474C75.7961 18.6933 75.9172 18.872 75.9953 19.0705C76.0733 19.269 76.1063 19.4823 76.0918 19.6951C76.0539 20.7492 76.0729 21.8223 76.035 22.8954C75.9971 24.0431 75.5079 24.9657 74.4349 25.4928C73.9457 25.7379 73.432 25.9262 72.9484 26.1513C72.8726 26.1892 72.798 26.2082 72.6854 26.2628C73.5512 27.4885 74.3413 28.7142 75.9603 28.9917C76.5999 29.1031 76.6567 29.2145 76.5631 29.8764C76.5214 30.1316 76.5087 30.3906 76.5253 30.6486C78.0307 27.7125 79.4993 24.8331 80.9824 21.897L80.9836 21.8981ZM67.7134 24.7028C67.7324 24.7028 67.7703 24.7217 67.7892 24.7217C69.0506 24.3261 70.3298 23.9874 71.5778 23.5361C71.869 23.4362 72.1244 23.2529 72.3121 23.009C72.3995 22.8876 72.4693 22.7544 72.5194 22.6134C72.5664 22.3844 72.5854 22.1506 72.5762 21.917C72.5762 21.6942 72.5762 21.4657 72.5573 21.2395C72.5383 21.0512 72.3879 21.0323 72.2375 21.0512H68.304C67.758 21.0512 67.758 21.0512 67.758 21.5972C67.7201 22.6324 67.7201 23.6676 67.7201 24.7028H67.7134Z" fill="white"/>
<path d="M43.0955 24.9846C42.5306 26.0198 42.0225 26.9982 41.4954 27.9776C40.8558 29.1822 40.2151 30.3867 39.5565 31.5913C39.5142 31.6561 39.4589 31.7113 39.394 31.7535C39.3292 31.7957 39.2563 31.824 39.1799 31.8364C38.6907 31.8743 38.177 31.8743 37.6745 31.8933C37.4293 31.8933 37.2979 31.7997 37.1664 31.5924L33.2663 24.7596C33.2285 24.7027 33.1906 24.6481 33.097 24.5144V25.0794C33.097 27.2255 33.097 29.3705 33.1159 31.5356C33.1159 31.7428 33.0401 31.8364 32.8151 31.8364H29.4677C29.2449 31.8364 29.1669 31.7049 29.1669 31.5021V26.3775C29.1669 25.5117 29.1858 24.6459 29.1858 23.7612C29.1858 23.3277 29.2047 22.8953 29.2237 22.4619C29.2237 22.18 29.2047 21.878 28.8471 21.8591H28.8092C28.6977 21.8591 27.472 21.878 27.472 21.9348C27.472 21.878 27.4531 21.7844 27.491 21.7465C27.8865 21.0501 28.3189 20.3536 28.6955 19.6383C29.1657 18.7535 29.1468 18.7346 30.1642 18.7346H33.8536C34.0764 18.7346 34.2492 18.7725 34.3617 18.9976C35.0202 20.2021 35.6988 21.4067 36.3752 22.6112C36.9023 23.5706 37.4293 24.5501 37.9564 25.5284L38.05 25.622C38.1192 25.5325 38.1821 25.4383 38.2383 25.3401C39.3303 23.3634 40.4212 21.3877 41.4753 19.411C41.7383 18.9028 42.0592 18.6387 42.6799 18.6577C44.0538 18.7145 45.4088 18.6766 46.7827 18.6766C47.0056 18.6766 47.117 18.7524 47.1404 18.9585C47.1631 19.1143 47.1758 19.2714 47.1783 19.4288V31.4977C47.1783 31.7986 47.0847 31.9122 46.7827 31.9122C45.6684 31.8933 44.5619 31.9122 43.4699 31.9122C43.188 31.9122 43.0744 31.8186 43.0744 31.5356V25.8137C43.0933 25.5318 43.0933 25.3056 43.0933 24.9858L43.0955 24.9846Z" fill="white"/>
<path d="M87.7219 4.58214V5.12591C87.7219 7.8927 87.7219 10.6595 87.7408 13.4263C87.7408 13.6491 87.6651 13.7461 87.44 13.7461H84.0514C83.7695 13.7461 83.6937 13.6146 83.7171 13.3695V3.60379C83.7171 3.13355 83.7171 3.13355 83.2658 3.13355H82.2629C82.0557 3.13355 82 3.03995 82.1125 2.85164C82.4702 2.26775 82.809 1.66603 83.1666 1.08214C83.336 0.819167 83.5009 0.55508 83.6937 0.309935C83.7777 0.218964 83.8943 0.164891 84.018 0.159506C85.6181 0.140563 87.2361 0.140563 88.8362 0.159506C88.9476 0.159506 89.1181 0.290992 89.1939 0.382364C89.9471 1.6248 90.6993 2.88618 91.4336 4.14645C92.2426 5.53931 93.0337 6.95112 93.8427 8.36293C93.8842 8.4028 93.9281 8.44001 93.9742 8.47436V7.31104C93.9931 5.2028 93.9931 3.09455 94.0121 0.986311C94.0121 0.101563 94.0121 0.101562 94.8968 0.101562H97.4597C97.6826 0.101562 97.8174 0.139448 97.794 0.402422C97.794 0.647566 97.8319 0.872653 97.8319 1.1178V13.0898C97.8319 13.7862 97.8319 13.7862 97.1355 13.7862C95.9498 13.8051 94.7642 13.8051 93.5597 13.8241C93.4618 13.8299 93.3642 13.8083 93.2778 13.7619C93.1915 13.7155 93.1197 13.646 93.0705 13.5611C91.3367 10.6246 89.5976 7.70141 87.8534 4.79162C87.8219 4.71544 87.7774 4.6453 87.7219 4.58436V4.58214Z" fill="white"/>
<path d="M62.1054 25.3802V31.4787C62.1054 31.7417 62.0296 31.8364 61.7477 31.8364C57.9457 31.8364 54.1248 31.8175 50.3228 31.8175C49.9273 31.8175 49.9083 31.7985 49.9083 31.4219V22.7449C49.9083 22.522 49.8325 22.463 49.6264 22.463C49.1562 22.4819 48.667 22.463 48.1778 22.463C47.955 22.463 47.877 22.3872 47.955 22.1432C48.2179 21.2205 48.4631 20.299 48.7082 19.3574C48.7272 19.3006 48.7272 19.2638 48.7461 19.207C48.9155 18.6799 48.9534 18.6421 49.5183 18.6421H53.659C53.9409 18.6421 54.0546 18.7535 54.0735 19.0187C54.0735 19.1301 54.0925 19.2415 54.0925 19.353V27.6155C54.0925 27.8038 54.1304 27.8974 54.3376 27.8974C55.0909 27.9163 55.843 27.9542 56.5774 27.9542C56.9729 27.9542 57.3674 27.9163 57.763 27.8974C57.9702 27.8974 57.9513 27.7659 57.9513 27.6155V19.2772C57.9513 18.6744 58.0081 18.6187 58.6098 18.6187C59.6261 18.6187 60.6612 18.6376 61.6775 18.6187C61.9594 18.6187 62.073 18.7123 62.092 18.9763C62.092 19.0878 62.1109 19.1992 62.1109 19.3106V25.3713L62.1054 25.3802Z" fill="white"/>
<path d="M16.7815 21.8983H13.7729C13.4152 21.8983 13.3773 21.8414 13.4152 21.5027C13.491 20.9188 13.5267 20.3171 13.5846 19.7332C13.6035 19.6218 13.6035 19.5103 13.6225 19.3989C13.6983 18.9476 13.7339 18.9097 14.2064 18.9097H17.5192C18.0083 18.9097 18.3471 18.7983 18.5354 18.2891C18.6669 17.9124 18.931 17.5737 19.1193 17.216C19.2129 17.0277 19.3422 17.0087 19.5338 17.0845C20.3428 17.3475 21.1529 17.5926 21.9619 17.8378C22.1847 17.9136 22.2817 18.0261 22.1847 18.2523C22.1279 18.4217 22.0733 18.61 21.9964 18.7983C22.0446 18.8176 22.0952 18.8303 22.1468 18.8362L26.2697 18.893C26.6653 18.893 26.7399 18.9498 26.6842 19.3443C26.5728 20.1343 26.4213 20.9043 26.3076 21.6966C26.2697 21.9417 26.1193 21.9596 25.912 21.9596H23.8406C23.7845 21.9692 23.728 21.9755 23.6712 21.9785C23.728 22.11 23.7826 22.2415 23.8406 22.3551C25.083 25.1219 26.3254 27.8698 27.5668 30.6366C27.8119 31.2015 27.8297 31.2015 27.2325 31.3519C26.4235 31.5748 25.5945 31.8032 24.781 32.0484C24.518 32.1241 24.4044 32.0673 24.3108 31.8255C23.3324 29.6604 22.353 27.4798 21.3746 25.3136C21.0169 24.5414 20.6782 23.7703 20.3205 22.9981C20.2714 22.927 20.2275 22.8525 20.189 22.7752L19.4926 24.1124L15.6004 31.7798C15.5068 31.9681 15.3931 32.0428 15.1858 31.9871C14.2443 31.7419 13.3038 31.4979 12.3622 31.2717C12.1171 31.2149 12.0803 31.1213 12.1928 30.8951C13.3406 28.6743 14.4705 26.4535 15.5992 24.2316C15.9569 23.5162 16.3336 22.8008 16.6912 22.0855C16.7406 22.0335 16.7732 21.9679 16.7849 21.8972L16.7815 21.8983Z" fill="white"/>
<path d="M66.4721 7.31069C66.4721 8.74144 66.51 10.0964 66.4532 11.4514C66.4153 12.4866 65.9451 13.5028 65.0603 13.6911C64.307 13.8605 63.536 13.8984 62.7638 13.973C62.5944 13.992 62.5008 13.8794 62.5008 13.7101C62.5197 12.9758 62.5387 12.2236 62.5387 11.4893C62.5294 11.4178 62.5471 11.3454 62.5883 11.2863C62.6295 11.2272 62.6912 11.1855 62.7615 11.1695C63.0624 11.0581 63.1192 10.7739 63.1382 10.492C63.176 10.0775 63.176 9.66407 63.176 9.24956V4.11155C63.1658 4.01742 63.1885 3.92264 63.2403 3.84338C63.2921 3.76413 63.3698 3.70532 63.4602 3.67698C63.8567 3.49423 64.2347 3.27369 64.589 3.01843H62.7259C62.3492 3.01843 62.3303 2.98054 62.425 2.62286C62.5364 2.15262 62.6323 1.68128 62.7448 1.21105C62.8214 0.886395 62.9155 0.566125 63.0267 0.25164C63.0828 0.164963 63.171 0.104055 63.2719 0.0822679C63.3833 0.0443819 63.517 0.0822679 63.6485 0.0822679H71.5165C72.7021 0.0833822 73.5434 0.836644 73.6047 2.00554C73.6426 2.94712 73.6047 3.88758 73.6047 4.82916V7.0856C73.6047 8.21438 72.9462 8.89298 71.8218 8.89298H67.7134C67.4683 8.89298 67.2989 8.81721 67.1864 8.59212C66.9791 8.15866 66.7351 7.76421 66.471 7.3118L66.4721 7.31069ZM66.3785 3.01954V5.33505C66.3785 5.39187 66.4899 5.48548 66.5479 5.48548C66.9461 5.53829 67.3474 5.56324 67.7491 5.56013C68.5024 5.56013 69.2734 5.5033 70.0267 5.5033C70.234 5.5033 70.2719 5.4097 70.2719 5.24033C70.2719 4.60073 70.2529 3.94107 70.2719 3.30146C70.2719 3.0786 70.1961 3.01954 69.9899 3.01954H66.3774H66.3785Z" fill="white"/>
<path d="M2.58971 21.0512H1.12219C0.787897 21.0512 0.745554 20.9944 0.802383 20.6746C0.93387 20.0718 1.04753 19.4701 1.17901 18.8672C1.19796 18.7914 1.2169 18.6978 1.23584 18.6221C1.38627 18.0571 1.38627 18.0571 1.98911 18.0571H9.00915C9.91284 18.0571 10.792 18.641 11.0795 19.4879C11.2489 19.9771 11.3247 20.5041 11.4372 21.0122C11.494 21.2351 11.3804 21.332 11.1742 21.3699L8.80301 21.8234C8.63364 21.8613 8.50215 21.8234 8.48321 21.6351C8.44532 21.3153 8.22023 21.1838 7.95614 21.127C7.67068 21.0738 7.38071 21.0484 7.09034 21.0512C6.33708 21.0323 5.56599 21.0512 4.81272 21.0512C4.77463 21.0609 4.73737 21.0736 4.70129 21.0891C5.0211 21.371 5.32196 21.6541 5.60499 21.917C7.40791 23.6108 9.2153 25.3056 11.0405 26.9659C11.5865 27.474 11.7748 28.0802 11.718 28.7733C11.6843 29.2101 11.6214 29.6441 11.5297 30.0725C11.3659 30.7634 10.8533 31.2002 10.2126 31.4977C9.62821 31.7626 8.99076 31.8895 8.34949 31.8688C6.90091 31.8688 5.47016 31.812 4.02046 31.8688C2.87274 31.9067 2.13842 31.3607 1.61136 30.457C1.36417 30.0009 1.16227 29.5217 1.00853 29.0262C0.897098 28.7064 0.970642 28.5928 1.29044 28.4992C2.06265 28.254 2.8148 28.01 3.587 27.7648C3.6806 27.7459 3.86892 27.7838 3.88786 27.8406C4.13301 28.8 4.86621 28.819 5.63841 28.7822C6.2223 28.7443 6.82402 28.7254 7.40791 28.7064H7.65306C7.87592 28.6685 7.95392 28.556 7.80349 28.3721C7.68796 28.2252 7.56209 28.0867 7.42686 27.9576C5.48799 26.1747 3.54912 24.3629 1.61136 22.5745C1.16007 22.1232 1.16007 22.1232 1.66819 21.7466C1.95011 21.5404 2.22868 21.3153 2.58971 21.0512Z" fill="white"/>
<path d="M51.2262 3.01973H49.7955C49.5325 3.01973 49.4378 2.94396 49.5136 2.66204C49.664 2.05921 49.7765 1.43632 49.9281 0.836827C49.9772 0.611522 50.0466 0.391113 50.1353 0.17828C50.176 0.128073 50.2268 0.087027 50.2844 0.0578366C50.342 0.0286461 50.4051 0.0119715 50.4696 0.00890739C51.975 -0.0100356 53.5005 0.00890739 55.0059 0.00890739H57.4752C58.7009 0.00890739 59.4887 0.554911 59.8653 1.70263C59.9818 2.11015 60.0697 2.52531 60.1283 2.94507C60.1662 3.16793 60.0722 3.29979 59.8464 3.34064C59.0564 3.49107 58.2652 3.6415 57.4752 3.7741C57.4257 3.77753 57.3761 3.76923 57.3304 3.74987C57.2847 3.7305 57.2442 3.70063 57.2122 3.66267C57.1008 3.15456 56.7041 3.07878 56.2896 3.02307C56.1516 3.01363 56.0131 3.01363 55.8751 3.02307H53.3523C53.5217 3.19244 53.6342 3.28604 53.7668 3.3997C55.7803 5.30069 57.8139 7.20167 59.8275 9.10265C60.134 9.37407 60.3286 9.74981 60.3735 10.1568C60.4492 11.1162 60.4303 12.0767 59.7706 12.8478C59.1678 13.5632 58.302 13.8261 57.4184 13.8507C55.6678 13.8885 53.9172 13.8696 52.1667 13.8507C51.9169 13.832 51.6766 13.7474 51.4703 13.6055C50.4351 12.9659 49.9649 11.9864 49.7386 10.8387C49.7008 10.6315 49.7955 10.5568 49.9615 10.5044C50.7515 10.2593 51.5215 9.99632 52.3138 9.75117C52.521 9.6754 52.5957 9.71329 52.6715 9.93949C52.8408 10.5423 53.1985 10.7863 53.8192 10.7674C54.6282 10.7485 55.4383 10.7295 56.2472 10.6916C56.3636 10.6712 56.4762 10.6336 56.5815 10.5802C56.5576 10.4546 56.5132 10.3337 56.45 10.2225C55.8294 9.61969 55.2076 9.01797 54.568 8.43965C53.0626 7.04678 51.5594 5.67286 50.0507 4.27999C49.9002 4.14851 49.9192 4.05713 50.0696 3.9457C50.4652 3.66379 50.8418 3.38076 51.2173 3.09884C51.2441 3.05761 51.2262 3.03867 51.2262 3.01973Z" fill="white"/>
<path d="M93.8235 28.7686V25.6285C93.8235 24.3672 93.8425 23.1247 93.8235 21.8645C93.8134 21.7708 93.8359 21.6765 93.8873 21.5975C93.9387 21.5185 94.0157 21.4597 94.1055 21.431C94.4481 21.2956 94.7759 21.1253 95.0838 20.9229C94.9026 20.9449 94.7203 20.9575 94.5378 20.9608H92.4084C92.1454 20.9608 92.0741 20.8493 92.1075 20.5841C92.2011 20.0002 92.258 19.3985 92.3304 18.8146C92.3493 18.721 92.3493 18.6263 92.3683 18.5327C92.4619 17.9867 92.5187 17.9678 93.0647 17.9678H98.7298C99.1253 17.9678 99.2 18.0435 99.1443 18.4569C99.0329 19.1723 98.9214 19.9055 98.81 20.622C98.7721 20.8672 98.6406 20.9797 98.3955 20.9563C97.699 20.9563 97.699 20.9563 97.699 21.6527V28.4856C97.699 28.7307 97.7748 28.8054 97.9999 28.7865C98.2072 28.7865 98.4144 28.8433 98.6206 28.8433C98.9548 28.8243 99.0161 29.0316 99.0161 29.2767C98.9782 30.03 98.9225 30.7822 98.8657 31.5165C98.8657 31.5922 98.7153 31.6859 98.6206 31.7237C98.5258 31.7616 98.3977 31.7237 98.2863 31.7237H92.5209C92.1254 31.7237 92.0697 31.6859 92.1254 31.2903C92.2011 30.6507 92.2758 30.0289 92.3705 29.3893C92.4273 28.9001 92.4819 28.8622 92.9544 28.8054C93.2446 28.8197 93.5356 28.8074 93.8235 28.7686Z" fill="white"/>
<path d="M77.897 3.01985H75.7129C75.3174 3.01985 75.2984 3.0009 75.3553 2.62427C75.4489 1.85207 75.5625 1.08098 75.6751 0.308772C75.694 0.101513 75.8065 0.0268555 76.0094 0.0268555H81.2098C81.3981 0.0268555 81.5106 0.0836844 81.4917 0.289829C81.3981 1.11775 81.3034 1.96127 81.1908 2.79365C81.1719 2.88725 80.9836 3.0009 80.871 3.0009C80.2314 3.03879 80.2125 3.03879 80.2125 3.69734V10.6427C80.2125 10.85 80.2693 10.9057 80.4755 10.9246C81.4538 10.9625 81.3413 10.9057 81.3413 11.8662C81.3413 12.4122 81.2844 12.9805 81.2655 13.5221C81.2655 13.7672 81.1719 13.8797 80.9078 13.8797C79.1383 13.8797 77.3877 13.8608 75.6193 13.8797C75.3374 13.8797 75.2851 13.7683 75.2995 13.5221C75.3753 12.9382 75.411 12.3365 75.4879 11.7526C75.5111 11.5339 75.5616 11.319 75.6383 11.113C75.659 11.0793 75.6864 11.0503 75.7188 11.0277C75.7512 11.0051 75.7879 10.9893 75.8266 10.9815C76.0753 10.9367 76.3272 10.9113 76.5799 10.9057C76.7682 10.9057 76.825 10.8299 76.825 10.6427C76.825 8.42194 76.844 6.20115 76.844 3.97925C76.844 3.73411 76.9197 3.58368 77.1448 3.49008C77.4078 3.35859 77.6719 3.20816 77.9349 3.07556C77.897 3.03768 77.897 3.03768 77.897 3.01873V3.01985Z" fill="white"/>
<path d="M22.7104 28.938C22.6587 29.0049 22.6021 29.0679 22.5411 29.1263C21.5059 29.9921 20.4518 30.8579 19.421 31.7237C19.2517 31.8552 19.1391 31.8352 18.9876 31.7048C18.4984 31.2535 17.9847 30.7822 17.4822 30.3498C17.2938 30.1805 17.2749 30.0869 17.4822 29.9164C18.5173 29.1074 19.5336 28.2784 20.5498 27.4504C20.7571 27.2811 20.9075 27.2811 21.0958 27.4694C21.566 27.9207 22.0742 28.3541 22.5645 28.7865C22.6213 28.8054 22.6581 28.8622 22.7149 28.9369L22.7104 28.938Z" fill="white"/>
<path d="M83.3926 31.8554C83.3168 31.7986 83.2422 31.7618 83.2043 31.7239L81.6231 30.3088C81.4916 30.1973 81.4537 30.1015 81.6041 29.9511C82.6583 29.1232 83.6934 28.2796 84.7476 27.4294C84.9359 27.279 85.0674 27.2411 85.2746 27.4484C85.7449 27.8997 86.234 28.3331 86.7433 28.7655C86.9126 28.9159 86.8937 29.0106 86.7243 29.1421C85.6891 29.989 84.654 30.8548 83.6188 31.705C83.5403 31.7487 83.4658 31.799 83.3959 31.8554H83.3926Z" fill="white"/>
</g>
<defs>
<clipPath id="clip0_4782_754">
<rect width="100" height="34.3681" fill="white"/>
</clipPath>
</defs>
</svg>
