<svg width="55" height="28" viewBox="0 0 29 28" fill="none" xmlns="http://www.w3.org/2000/svg">
<path d="M22 1H3.25C2.05 1 1 2.05 1 3.25V3.25C1 4.45 2.05 5.5 3.25 5.5H25C26.65 5.5 28 6.85 28 8.5V23.5C28 25.15 26.65 26.5 25 26.5H4C2.35 26.5 1 25.15 1 23.5V4" stroke="url(#paint0_linear_136_2155)" stroke-width="2" stroke-linecap="round" stroke-linejoin="round"/>
<path d="M21.3994 15.4C21.0994 15.4 20.7994 15.7 20.7994 16C20.7994 16.3 21.0994 16.6 21.3994 16.6C21.6994 16.6 21.9994 16.3 21.9994 16C21.9994 15.7 21.6994 15.4 21.3994 15.4" stroke="url(#paint1_linear_136_2155)" stroke-width="2" stroke-linecap="round" stroke-linejoin="round"/>
<defs>
<linearGradient id="paint0_linear_136_2155" x1="14.5" y1="1" x2="14.5" y2="26.5" gradientUnits="userSpaceOnUse">
<stop stop-color="rgb(17, 153, 250)"/>
<stop offset="1" stop-color="rgb(17, 153, 250)"/>
</linearGradient>
<linearGradient id="paint1_linear_136_2155" x1="21.3994" y1="15.25" x2="21.3994" y2="16.75" gradientUnits="userSpaceOnUse">
<stop stop-color="rgb(17, 153, 250)"/>
<stop offset="1" stop-color="rgb(17, 153, 250)"/>
</linearGradient>
</defs>
</svg>
